<?xml version="1.0" standalone="no"?>
<!DOCTYPE svg PUBLIC "-//W3C//DTD SVG 20010904//EN"
 "http://www.w3.org/TR/2001/REC-SVG-20010904/DTD/svg10.dtd">
<svg version="1.0" xmlns="http://www.w3.org/2000/svg"
 width="250.000000pt" height="250.000000pt" viewBox="0 0 250.000000 250.000000"
 preserveAspectRatio="xMidYMid meet">
<metadata>
Created by potrace 1.11, written by Peter Selinger 2001-2013
</metadata>
<g transform="translate(0.000000,250.000000) scale(0.100000,-0.100000)"
fill="#000000" stroke="none">
<path d="M657 2253 c-4 -3 -7 -126 -7 -273 l0 -267 -61 -7 c-34 -3 -66 -3 -72
1 -5 3 -7 1 -4 -4 4 -6 1 -13 -7 -16 -8 -3 -17 -20 -21 -38 -4 -18 -17 -41
-29 -53 -20 -20 -21 -28 -16 -129 4 -88 8 -111 23 -121 9 -7 17 -18 17 -24 0
-24 45 -42 107 -42 l63 0 0 -125 0 -125 26 6 c42 11 21 -12 -33 -36 -25 -11
-50 -17 -56 -13 -5 3 -7 1 -4 -4 4 -6 -7 -25 -23 -43 -29 -31 -30 -35 -30
-131 l0 -99 154 0 c93 0 157 -4 161 -10 4 -7 -52 -10 -161 -10 l-167 0 6 -137
c5 -137 16 -192 45 -225 11 -13 14 -38 13 -92 -3 -101 11 -116 107 -116 93 0
112 17 112 100 l0 60 470 0 470 0 0 -60 c0 -84 17 -100 110 -100 100 0 113 15
108 121 -2 43 0 79 4 79 19 0 39 107 43 233 l5 137 -166 0 c-107 0 -163 3
-159 10 4 6 69 10 163 10 l157 0 -5 97 c-6 116 -22 146 -97 184 -87 44 -93 57
-93 203 0 64 -4 116 -8 116 -4 0 -14 -6 -22 -12 -8 -7 -6 -3 4 9 24 29 7 59
-42 73 -40 11 -886 15 -940 4 -35 -7 -75 -40 -67 -55 4 -5 2 -9 -4 -9 -6 0
-12 -49 -14 -127 -1 -71 -4 35 -5 235 -2 316 0 362 13 362 13 0 15 31 15 216
0 129 -4 223 -10 235 -10 19 -59 27 -73 12z m-7 -763 l0 -170 -60 0 c-63 0
-73 7 -40 28 18 11 20 23 20 126 0 111 -1 115 -26 133 -17 13 -23 24 -18 36 5
13 19 17 65 17 l59 0 0 -170z m738 -277 c-60 -2 -156 -2 -215 0 -60 1 -11 3
107 3 118 0 167 -2 108 -3z m-138 -298 l0 -245 -149 0 c-144 0 -151 1 -165 22
-13 18 -16 57 -16 216 0 118 4 201 11 213 17 32 45 38 187 38 l132 1 0 -245z
m343 226 c15 -12 17 -40 17 -225 0 -208 -5 -246 -30 -231 -9 5 -11 4 -6 -3 5
-9 -31 -12 -138 -12 l-146 0 0 246 0 246 143 -4 c103 -2 149 -7 160 -17z
m-862 -128 c13 -16 12 -17 -3 -4 -10 7 -18 15 -18 17 0 8 8 3 21 -13z m1094
-1 c-53 -42 -60 -46 -33 -19 16 15 31 27 35 27 4 0 3 -3 -2 -8z m-1054 -29
c13 -16 12 -17 -3 -4 -10 7 -18 15 -18 17 0 8 8 3 21 -13z m30 -40 c13 -16 12
-17 -3 -4 -10 7 -18 15 -18 17 0 8 8 3 21 -13z m464 -308 c316 0 343 1 370 19
l30 18 -23 -23 -23 -24 -354 0 -354 0 -23 24 -23 23 30 -18 c27 -18 54 -19
370 -19z m-570 -30 c0 -17 -8 -20 -57 -23 -57 -3 -58 -2 -58 23 0 25 1 26 58
23 49 -3 57 -6 57 -23z m139 3 c18 -29 -4 -72 -39 -76 -46 -6 -75 54 -43 86
17 17 69 11 82 -10z m932 11 c18 -15 18 -57 0 -75 -18 -17 -58 -18 -74 -2 -14
14 -16 60 -2 74 14 14 61 16 76 3z m224 -14 c0 -24 -3 -25 -59 -25 -41 0 -60
4 -64 14 -9 23 15 36 70 36 50 0 53 -1 53 -25z m-445 -52 c-3 -16 -13 -38 -21
-50 -14 -23 -17 -23 -255 -23 l-240 0 -24 25 c-14 13 -25 36 -25 50 l0 25 286
0 286 0 -7 -27z m390 -253 c-3 -5 -12 -10 -18 -10 -7 0 -6 4 3 10 19 12 23 12
15 0z"/>
<path d="M1822 2248 c-9 -9 -12 -75 -12 -235 0 -192 2 -223 15 -223 13 0 15
-48 15 -373 l0 -373 30 -11 30 -11 0 129 0 129 70 0 c65 0 71 2 87 27 10 15
26 36 36 45 14 15 17 36 17 123 0 91 -3 108 -20 125 -11 11 -22 31 -26 44 -9
39 -36 55 -103 62 l-62 7 1 263 c1 145 -2 268 -5 274 -9 14 -58 13 -73 -2z
m197 -602 c9 -11 7 -19 -14 -40 -24 -24 -25 -31 -25 -132 0 -97 2 -110 22
-131 l21 -23 -61 0 -62 0 0 170 0 170 54 0 c34 0 58 -5 65 -14z"/>
<path d="M843 2199 c-58 -17 -63 -35 -63 -222 l0 -169 38 5 c20 3 132 11 249
18 200 11 467 4 649 -17 l52 -5 1 166 c0 189 -5 208 -68 225 -46 13 -813 12
-858 -1z"/>
<path d="M953 1800 c-109 -11 -171 -26 -195 -47 -33 -29 -22 -43 35 -45 38 -1
43 -2 18 -5 -59 -8 -62 -17 -62 -175 0 -133 1 -143 18 -138 10 2 237 4 504 5
401 0 489 -2 503 -14 9 -8 19 -11 22 -8 3 3 5 70 5 148 -2 147 -6 163 -46 179
-15 7 -10 9 23 9 45 1 55 17 27 45 -18 18 -31 22 -115 37 -82 14 -614 20 -737
9z m727 -87 c0 -5 -184 -8 -410 -8 -225 0 -402 3 -392 7 23 9 802 10 802 1z
m47 -9 c-3 -3 -12 -4 -19 -1 -8 3 -5 6 6 6 11 1 17 -2 13 -5z m9 -71 c7 -10
14 -26 14 -36 0 -16 -27 -17 -475 -17 -512 1 -492 -1 -465 51 10 18 26 19 462
19 418 0 452 -1 464 -17z"/>
</g>
</svg>
